# xmcd CD database file generated by Grip 3.0.5
# 
# Track frame offsets:
#       150
#       25465
#       56235
#       78202
#       99722
#       102070
#       130815
#       149080
#       185242
#       198992
#       200085
#       223840
#       248797
#       279277
#       295692
#       322077
# 
# Disc length: 4573 seconds
# 
# Revision: 2
# Processed by: cddbd v1.4PL0 Copyright (c) Steve Scherf et al.
# Submitted via: Grip 3.0.5
# 
DISCID=0211db10
DTITLE=Various Artist - Cafe'dge 3
DYEAR=2001
DGENRE=Other
TTITLE0=Universal Funk - COULD I
TTITLE1=Sunaga 't Experience - IT'S YOU (It's MURO Mix)
TTITLE2=THE BRAND NEW HEAVIES - DREAM COME TRUE
TTITLE3=SPPEDOMETER feat. Yoshie Nakano (from EGO-WRAPPIN') - PRIVATE ROOTS
TTITLE4=Interlude
TTITLE5=JAYMZ NYLON feat. MOONEY - I KNOW A PLACE (Ewan Pearson and AI Usher rem
TTITLE5=ix)
TTITLE6=ASAMI - Hikari Miru Houe -unreleased-
TTITLE7=Yukihiro Fukutomi feat. Josh Milan - Love Each Other
TTITLE8=DIMITRI FROM PARIS - DIRTY LARRY (IDJUT BOYS CLASSICAL JAZZ MIX "DJ TO
TTITLE8=OL")
TTITLE9=Interlude 2
TTITLE10=LAVA feat. Jeanne Bastos - AILE ALEGRIA
TTITLE11=VIPER SQUAD - NUPHONIX
TTITLE12=NATHAN HAINES - EARTH IS THE PLACE
TTITLE13=A MAN CALLED ADAM - A. P. B.
TTITLE14=MARCOS VALLE - ESCAPE
TTITLE15=DJ SPINNA - LADBROKE GROOVE (DUB MIX)
EXTD=
EXTT0=
EXTT1=
EXTT2=
EXTT3=
EXTT4=
EXTT5=
EXTT6=
EXTT7=
EXTT8=
EXTT9=
EXTT10=
EXTT11=
EXTT12=
EXTT13=
EXTT14=
EXTT15=
PLAYORDER=
